<svg width="46" height="43" viewBox="0 0 46 43" fill="none" xmlns="http://www.w3.org/2000/svg">
<path d="M6.32031 10.6201H10.0943M10.0943 10.6201H40.286M10.0943 10.6201V35.2601C10.0943 36.1936 10.4919 37.089 11.1997 37.7491C11.9074 38.4092 12.8673 38.7801 13.8682 38.7801H32.7381C33.739 38.7801 34.6989 38.4092 35.4067 37.7491C36.1144 37.089 36.5121 36.1936 36.5121 35.2601V10.6201M15.7552 10.6201V7.10008C15.7552 6.16652 16.1528 5.27119 16.8606 4.61106C17.5684 3.95093 18.5283 3.58008 19.5292 3.58008H27.0771C28.0781 3.58008 29.038 3.95093 29.7457 4.61106C30.4535 5.27119 30.8511 6.16652 30.8511 7.10008V10.6201" stroke="white" stroke-width="3.52" stroke-linecap="round" stroke-linejoin="round"/>
</svg>