<svg width="38" height="40" viewBox="0 0 38 40" fill="none" xmlns="http://www.w3.org/2000/svg">
<path d="M26.9664 5.54063C27.3805 5.1169 27.8721 4.78078 28.4132 4.55145C28.9542 4.32213 29.5341 4.2041 30.1197 4.2041C30.7054 4.2041 31.2853 4.32213 31.8263 4.55145C32.3674 4.78078 32.859 5.1169 33.2731 5.54063C33.6872 5.96436 34.0157 6.46741 34.2398 7.02104C34.4639 7.57467 34.5792 8.16805 34.5792 8.7673C34.5792 9.36654 34.4639 9.95992 34.2398 10.5136C34.0157 11.0672 33.6872 11.5702 33.2731 11.994L11.9881 33.774L3.31641 36.194L5.68141 27.3206L26.9664 5.54063Z" stroke="#F3F3F3" stroke-width="3.52" stroke-linecap="round" stroke-linejoin="round"/>
</svg>