<svg width="50" height="48" viewBox="0 0 50 48" fill="none" xmlns="http://www.w3.org/2000/svg">
<path d="M2.88371 0.666992H0.555664V2.88921H2.88371V0.666992Z" fill="white"/>
<path d="M5.21175 0.666992H2.88371V2.88921H5.21175V0.666992Z" fill="white"/>
<path d="M7.53979 0.666992H5.21175V2.88921H7.53979V0.666992Z" fill="white"/>
<path d="M9.86783 0.666992H7.53979V2.88921H9.86783V0.666992Z" fill="white"/>
<path d="M12.1959 0.666992H9.86783V2.88921H12.1959V0.666992Z" fill="white"/>
<path d="M14.5239 0.666992H12.1959V2.88921H14.5239V0.666992Z" fill="white"/>
<path d="M16.852 0.666992H14.5239V2.88921H16.852V0.666992Z" fill="white"/>
<path d="M21.508 0.666992H19.18V2.88921H21.508V0.666992Z" fill="white"/>
<path d="M26.1641 0.666992H23.8361V2.88921H26.1641V0.666992Z" fill="white"/>
<path d="M28.4922 0.666992H26.1641V2.88921H28.4922V0.666992Z" fill="white"/>
<path d="M30.8202 0.666992H28.4922V2.88921H30.8202V0.666992Z" fill="white"/>
<path d="M35.4763 0.666992H33.1483V2.88921H35.4763V0.666992Z" fill="white"/>
<path d="M37.8043 0.666992H35.4763V2.88921H37.8043V0.666992Z" fill="white"/>
<path d="M40.1324 0.666992H37.8043V2.88921H40.1324V0.666992Z" fill="white"/>
<path d="M42.4604 0.666992H40.1324V2.88921H42.4604V0.666992Z" fill="white"/>
<path d="M44.7885 0.666992H42.4604V2.88921H44.7885V0.666992Z" fill="white"/>
<path d="M47.1165 0.666992H44.7885V2.88921H47.1165V0.666992Z" fill="white"/>
<path d="M49.4446 0.666992H47.1165V2.88921H49.4446V0.666992Z" fill="white"/>
<path d="M2.88371 2.88921H0.555664V5.11144H2.88371V2.88921Z" fill="white"/>
<path d="M16.852 2.88921H14.5239V5.11144H16.852V2.88921Z" fill="white"/>
<path d="M23.8361 2.88921H21.508L21.508 5.11144H23.8361V2.88921Z" fill="white"/>
<path d="M26.1641 2.88921H23.8361V5.11144H26.1641V2.88921Z" fill="white"/>
<path d="M35.4763 2.88921H33.1483V5.11144H35.4763V2.88921Z" fill="white"/>
<path d="M49.4446 2.88921H47.1165V5.11144H49.4446V2.88921Z" fill="white"/>
<path d="M2.88371 5.11144H0.555664V7.33366H2.88371V5.11144Z" fill="white"/>
<path d="M7.53979 5.11144H5.21175V7.33366H7.53979V5.11144Z" fill="white"/>
<path d="M9.86783 5.11144H7.53979V7.33366H9.86783V5.11144Z" fill="white"/>
<path d="M12.1959 5.11144H9.86783V7.33366H12.1959V5.11144Z" fill="white"/>
<path d="M16.852 5.11144H14.5239V7.33366H16.852V5.11144Z" fill="white"/>
<path d="M26.1641 5.11144H23.8361V7.33366H26.1641V5.11144Z" fill="white"/>
<path d="M28.4922 5.11144H26.1641V7.33366H28.4922V5.11144Z" fill="white"/>
<path d="M30.8202 5.11144H28.4922V7.33366H30.8202V5.11144Z" fill="white"/>
<path d="M35.4763 5.11144H33.1483V7.33366H35.4763V5.11144Z" fill="white"/>
<path d="M40.1324 5.11144H37.8043V7.33366H40.1324V5.11144Z" fill="white"/>
<path d="M42.4604 5.11144H40.1324V7.33366H42.4604V5.11144Z" fill="white"/>
<path d="M44.7885 5.11144H42.4604V7.33366H44.7885V5.11144Z" fill="white"/>
<path d="M49.4446 5.11144H47.1165V7.33366H49.4446V5.11144Z" fill="white"/>
<path d="M2.88371 7.33366H0.555664V9.55588H2.88371V7.33366Z" fill="white"/>
<path d="M7.53979 7.33366H5.21175V9.55588H7.53979V7.33366Z" fill="white"/>
<path d="M9.86783 7.33366H7.53979V9.55588H9.86783V7.33366Z" fill="white"/>
<path d="M12.1959 7.33366H9.86783V9.55588H12.1959V7.33366Z" fill="white"/>
<path d="M16.852 7.33366H14.5239V9.55588H16.852V7.33366Z" fill="white"/>
<path d="M21.508 7.33366H19.18V9.55588H21.508V7.33366Z" fill="white"/>
<path d="M23.8361 7.33366H21.508V9.55588H23.8361V7.33366Z" fill="white"/>
<path d="M28.4922 7.33366H26.1641L26.1641 9.55588H28.4922V7.33366Z" fill="white"/>
<path d="M35.4763 7.33366H33.1483V9.55588H35.4763V7.33366Z" fill="white"/>
<path d="M40.1324 7.33366H37.8043V9.55588H40.1324V7.33366Z" fill="white"/>
<path d="M42.4604 7.33366H40.1324V9.55588H42.4604V7.33366Z" fill="white"/>
<path d="M44.7885 7.33366H42.4604V9.55588H44.7885V7.33366Z" fill="white"/>
<path d="M49.4446 7.33366H47.1165V9.55588H49.4446V7.33366Z" fill="white"/>
<path d="M2.88371 9.55588H0.555664V11.7781H2.88371V9.55588Z" fill="white"/>
<path d="M7.53979 9.55588H5.21175V11.7781H7.53979V9.55588Z" fill="white"/>
<path d="M9.86783 9.55588H7.53979V11.7781H9.86783V9.55588Z" fill="white"/>
<path d="M12.1959 9.55588H9.86783V11.7781H12.1959V9.55588Z" fill="white"/>
<path d="M16.852 9.55588H14.5239V11.7781H16.852V9.55588Z" fill="white"/>
<path d="M21.508 9.55588H19.18V11.7781H21.508V9.55588Z" fill="white"/>
<path d="M23.8361 9.55588H21.508V11.7781H23.8361V9.55588Z" fill="white"/>
<path d="M26.1641 9.55588H23.8361V11.7781H26.1641L26.1641 9.55588Z" fill="white"/>
<path d="M30.8202 9.55588H28.4922V11.7781H30.8202V9.55588Z" fill="white"/>
<path d="M35.4763 9.55588H33.1483V11.7781H35.4763V9.55588Z" fill="white"/>
<path d="M40.1324 9.55588H37.8043V11.7781H40.1324V9.55588Z" fill="white"/>
<path d="M42.4604 9.55588H40.1324V11.7781H42.4604V9.55588Z" fill="white"/>
<path d="M44.7885 9.55588H42.4604V11.7781H44.7885V9.55588Z" fill="white"/>
<path d="M49.4446 9.55588H47.1165V11.7781H49.4446V9.55588Z" fill="white"/>
<path d="M2.88371 11.7781H0.555664V14.0003H2.88371V11.7781Z" fill="white"/>
<path d="M16.852 11.7781H14.5239V14.0003H16.852V11.7781Z" fill="white"/>
<path d="M21.508 11.7781H19.18V14.0003H21.508V11.7781Z" fill="white"/>
<path d="M26.1641 11.7781H23.8361V14.0003H26.1641V11.7781Z" fill="white"/>
<path d="M28.4922 11.7781H26.1641V14.0003H28.4922V11.7781Z" fill="white"/>
<path d="M35.4763 11.7781H33.1483V14.0003H35.4763V11.7781Z" fill="white"/>
<path d="M49.4446 11.7781H47.1165V14.0003H49.4446V11.7781Z" fill="white"/>
<path d="M2.88371 14.0003H0.555664V16.2225H2.88371V14.0003Z" fill="white"/>
<path d="M5.21175 14.0003H2.88371V16.2225H5.21175V14.0003Z" fill="white"/>
<path d="M7.53979 14.0003H5.21175V16.2225H7.53979V14.0003Z" fill="white"/>
<path d="M9.86783 14.0003H7.53979V16.2225H9.86783V14.0003Z" fill="white"/>
<path d="M12.1959 14.0003H9.86783V16.2225H12.1959V14.0003Z" fill="white"/>
<path d="M14.5239 14.0003H12.1959V16.2225H14.5239V14.0003Z" fill="white"/>
<path d="M16.852 14.0003H14.5239V16.2225H16.852V14.0003Z" fill="white"/>
<path d="M21.508 14.0003H19.18V16.2225H21.508V14.0003Z" fill="white"/>
<path d="M26.1641 14.0003H23.8361V16.2225H26.1641V14.0003Z" fill="white"/>
<path d="M30.8202 14.0003H28.4922V16.2225H30.8202V14.0003Z" fill="white"/>
<path d="M35.4763 14.0003H33.1483V16.2225H35.4763V14.0003Z" fill="white"/>
<path d="M37.8043 14.0003H35.4763V16.2225H37.8043V14.0003Z" fill="white"/>
<path d="M40.1324 14.0003H37.8043V16.2225H40.1324V14.0003Z" fill="white"/>
<path d="M42.4604 14.0003H40.1324V16.2225H42.4604V14.0003Z" fill="white"/>
<path d="M44.7885 14.0003H42.4604V16.2225H44.7885V14.0003Z" fill="white"/>
<path d="M47.1165 14.0003H44.7885V16.2225H47.1165V14.0003Z" fill="white"/>
<path d="M49.4446 14.0003H47.1165V16.2225H49.4446V14.0003Z" fill="white"/>
<path d="M21.508 16.2225H19.18V18.4448H21.508V16.2225Z" fill="white"/>
<path d="M23.8361 16.2225H21.508V18.4448H23.8361V16.2225Z" fill="white"/>
<path d="M26.1641 16.2225H23.8361V18.4448H26.1641V16.2225Z" fill="white"/>
<path d="M28.4922 16.2225H26.1641V18.4448H28.4922V16.2225Z" fill="white"/>
<path d="M30.8202 16.2225H28.4922V18.4448H30.8202V16.2225Z" fill="white"/>
<path d="M2.88371 18.4448H0.555664V20.667H2.88371V18.4448Z" fill="white"/>
<path d="M5.21175 18.4448H2.88371V20.667H5.21175V18.4448Z" fill="white"/>
<path d="M7.53979 18.4448H5.21175V20.667H7.53979V18.4448Z" fill="white"/>
<path d="M12.1959 18.4448H9.86783V20.667H12.1959V18.4448Z" fill="white"/>
<path d="M16.852 18.4448H14.5239V20.667H16.852V18.4448Z" fill="white"/>
<path d="M21.508 18.4448H19.18V20.667H21.508V18.4448Z" fill="white"/>
<path d="M26.1641 18.4448H23.8361V20.667H26.1641V18.4448Z" fill="white"/>
<path d="M28.4922 18.4448H26.1641V20.667H28.4922V18.4448Z" fill="white"/>
<path d="M30.8202 18.4448H28.4922V20.667H30.8202V18.4448Z" fill="white"/>
<path d="M33.1483 18.4448L30.8202 18.4448V20.667H33.1483V18.4448Z" fill="white"/>
<path d="M35.4763 18.4448H33.1483V20.667H35.4763V18.4448Z" fill="white"/>
<path d="M37.8043 18.4448H35.4763V20.667H37.8043V18.4448Z" fill="white"/>
<path d="M40.1324 18.4448H37.8043V20.667H40.1324V18.4448Z" fill="white"/>
<path d="M42.4604 18.4448H40.1324V20.667H42.4604V18.4448Z" fill="white"/>
<path d="M49.4446 18.4448H47.1165V20.667H49.4446V18.4448Z" fill="white"/>
<path d="M2.88371 20.667H0.555664V22.8892H2.88371V20.667Z" fill="white"/>
<path d="M7.53979 20.667H5.21175V22.8892H7.53979V20.667Z" fill="white"/>
<path d="M9.86783 20.667H7.53979V22.8892H9.86783V20.667Z" fill="white"/>
<path d="M19.18 20.667H16.852V22.8892H19.18L19.18 20.667Z" fill="white"/>
<path d="M23.8361 20.667H21.508L21.508 22.8892H23.8361V20.667Z" fill="white"/>
<path d="M35.4763 20.667H33.1483V22.8892H35.4763V20.667Z" fill="white"/>
<path d="M42.4604 20.667H40.1324V22.8892H42.4604V20.667Z" fill="white"/>
<path d="M47.1165 20.667L44.7885 20.667V22.8892H47.1165V20.667Z" fill="white"/>
<path d="M7.53979 22.8892H5.21175V25.1114H7.53979V22.8892Z" fill="white"/>
<path d="M9.86783 22.8892H7.53979V25.1114H9.86783V22.8892Z" fill="white"/>
<path d="M16.852 22.8892H14.5239V25.1114H16.852V22.8892Z" fill="white"/>
<path d="M19.18 22.8892H16.852V25.1114H19.18V22.8892Z" fill="white"/>
<path d="M23.8361 22.8892H21.508V25.1114H23.8361V22.8892Z" fill="white"/>
<path d="M35.4763 22.8892H33.1483V25.1114H35.4763V22.8892Z" fill="white"/>
<path d="M37.8043 22.8892H35.4763V25.1114H37.8043V22.8892Z" fill="white"/>
<path d="M42.4604 22.8892H40.1324V25.1114H42.4604V22.8892Z" fill="white"/>
<path d="M44.7885 22.8892H42.4604V25.1114H44.7885V22.8892Z" fill="white"/>
<path d="M47.1165 22.8892H44.7885V25.1114H47.1165V22.8892Z" fill="white"/>
<path d="M49.4446 22.8892H47.1165V25.1114H49.4446V22.8892Z" fill="white"/>
<path d="M7.53979 25.1114H5.21175V27.3337H7.53979V25.1114Z" fill="white"/>
<path d="M14.5239 25.1114L12.1959 25.1114V27.3337H14.5239V25.1114Z" fill="white"/>
<path d="M19.18 25.1114H16.852V27.3337H19.18V25.1114Z" fill="white"/>
<path d="M28.4922 25.1114H26.1641V27.3337H28.4922V25.1114Z" fill="white"/>
<path d="M33.1483 25.1114L30.8202 25.1114V27.3337H33.1483V25.1114Z" fill="white"/>
<path d="M37.8043 25.1114H35.4763V27.3337H37.8043V25.1114Z" fill="white"/>
<path d="M40.1324 25.1114H37.8043V27.3337H40.1324V25.1114Z" fill="white"/>
<path d="M42.4604 25.1114H40.1324V27.3337H42.4604V25.1114Z" fill="white"/>
<path d="M49.4446 25.1114H47.1165V27.3337H49.4446V25.1114Z" fill="white"/>
<path d="M2.88371 27.3337H0.555664V29.5559H2.88371V27.3337Z" fill="white"/>
<path d="M9.86783 27.3337H7.53979V29.5559H9.86783V27.3337Z" fill="white"/>
<path d="M12.1959 27.3337H9.86783V29.5559H12.1959V27.3337Z" fill="white"/>
<path d="M14.5239 27.3337H12.1959V29.5559H14.5239V27.3337Z" fill="white"/>
<path d="M16.852 27.3337H14.5239V29.5559H16.852V27.3337Z" fill="white"/>
<path d="M19.18 27.3337H16.852V29.5559H19.18V27.3337Z" fill="white"/>
<path d="M21.508 27.3337H19.18V29.5559H21.508V27.3337Z" fill="white"/>
<path d="M23.8361 27.3337H21.508V29.5559H23.8361V27.3337Z" fill="white"/>
<path d="M33.1483 27.3337H30.8202V29.5559H33.1483V27.3337Z" fill="white"/>
<path d="M35.4763 27.3337H33.1483V29.5559H35.4763V27.3337Z" fill="white"/>
<path d="M37.8043 27.3337H35.4763V29.5559H37.8043V27.3337Z" fill="white"/>
<path d="M40.1324 27.3337H37.8043V29.5559H40.1324V27.3337Z" fill="white"/>
<path d="M42.4604 27.3337H40.1324V29.5559H42.4604V27.3337Z" fill="white"/>
<path d="M21.508 29.5559H19.18L19.18 31.7781H21.508V29.5559Z" fill="white"/>
<path d="M26.1641 29.5559H23.8361V31.7781H26.1641V29.5559Z" fill="white"/>
<path d="M35.4763 29.5559H33.1483V31.7781H35.4763V29.5559Z" fill="white"/>
<path d="M37.8043 29.5559H35.4763V31.7781H37.8043V29.5559Z" fill="white"/>
<path d="M47.1165 29.5559H44.7885V31.7781H47.1165V29.5559Z" fill="white"/>
<path d="M2.88371 31.7781H0.555664V34.0003H2.88371V31.7781Z" fill="white"/>
<path d="M5.21175 31.7781H2.88371V34.0003H5.21175V31.7781Z" fill="white"/>
<path d="M7.53979 31.7781H5.21175V34.0003H7.53979V31.7781Z" fill="white"/>
<path d="M9.86783 31.7781H7.53979V34.0003H9.86783V31.7781Z" fill="white"/>
<path d="M12.1959 31.7781H9.86783V34.0003H12.1959V31.7781Z" fill="white"/>
<path d="M14.5239 31.7781H12.1959V34.0003H14.5239V31.7781Z" fill="white"/>
<path d="M16.852 31.7781H14.5239V34.0003H16.852V31.7781Z" fill="white"/>
<path d="M23.8361 31.7781H21.508L21.508 34.0003H23.8361V31.7781Z" fill="white"/>
<path d="M26.1641 31.7781H23.8361V34.0003H26.1641V31.7781Z" fill="white"/>
<path d="M30.8202 31.7781H28.4922V34.0003H30.8202V31.7781Z" fill="white"/>
<path d="M35.4763 31.7781H33.1483V34.0003H35.4763V31.7781Z" fill="white"/>
<path d="M40.1324 31.7781H37.8043V34.0003H40.1324V31.7781Z" fill="white"/>
<path d="M44.7885 31.7781H42.4604V34.0003H44.7885V31.7781Z" fill="white"/>
<path d="M47.1165 31.7781H44.7885V34.0003H47.1165V31.7781Z" fill="white"/>
<path d="M2.88371 34.0003H0.555664V36.2226H2.88371V34.0003Z" fill="white"/>
<path d="M16.852 34.0003H14.5239V36.2226H16.852V34.0003Z" fill="white"/>
<path d="M33.1483 34.0003H30.8202V36.2226H33.1483V34.0003Z" fill="white"/>
<path d="M35.4763 34.0003H33.1483V36.2226H35.4763V34.0003Z" fill="white"/>
<path d="M37.8043 34.0003H35.4763V36.2226H37.8043V34.0003Z" fill="white"/>
<path d="M40.1324 34.0003H37.8043V36.2226H40.1324V34.0003Z" fill="white"/>
<path d="M2.88371 36.2226H0.555664V38.4448H2.88371V36.2226Z" fill="white"/>
<path d="M7.53979 36.2226H5.21175V38.4448H7.53979V36.2226Z" fill="white"/>
<path d="M9.86783 36.2226H7.53979V38.4448H9.86783V36.2226Z" fill="white"/>
<path d="M12.1959 36.2226H9.86783V38.4448H12.1959V36.2226Z" fill="white"/>
<path d="M16.852 36.2226H14.5239V38.4448H16.852V36.2226Z" fill="white"/>
<path d="M21.508 36.2226H19.18V38.4448H21.508V36.2226Z" fill="white"/>
<path d="M23.8361 36.2226H21.508V38.4448H23.8361V36.2226Z" fill="white"/>
<path d="M26.1641 36.2226H23.8361V38.4448H26.1641V36.2226Z" fill="white"/>
<path d="M35.4763 36.2226H33.1483V38.4448H35.4763V36.2226Z" fill="white"/>
<path d="M37.8043 36.2226H35.4763V38.4448H37.8043V36.2226Z" fill="white"/>
<path d="M42.4604 36.2226H40.1324V38.4448H42.4604V36.2226Z" fill="white"/>
<path d="M47.1165 36.2226H44.7885V38.4448H47.1165V36.2226Z" fill="white"/>
<path d="M2.88371 38.4448H0.555664V40.667H2.88371V38.4448Z" fill="white"/>
<path d="M7.53979 38.4448H5.21175V40.667H7.53979V38.4448Z" fill="white"/>
<path d="M9.86783 38.4448H7.53979V40.667H9.86783V38.4448Z" fill="white"/>
<path d="M12.1959 38.4448H9.86783V40.667H12.1959V38.4448Z" fill="white"/>
<path d="M16.852 38.4448H14.5239V40.667H16.852V38.4448Z" fill="white"/>
<path d="M23.8361 38.4448H21.508L21.508 40.667H23.8361V38.4448Z" fill="white"/>
<path d="M35.4763 38.4448H33.1483V40.667H35.4763V38.4448Z" fill="white"/>
<path d="M40.1324 38.4448H37.8043V40.667H40.1324V38.4448Z" fill="white"/>
<path d="M42.4604 38.4448H40.1324V40.667H42.4604V38.4448Z" fill="white"/>
<path d="M2.88371 40.667H0.555664V42.8892H2.88371V40.667Z" fill="white"/>
<path d="M7.53979 40.667H5.21175V42.8892H7.53979V40.667Z" fill="white"/>
<path d="M9.86783 40.667H7.53979V42.8892H9.86783V40.667Z" fill="white"/>
<path d="M12.1959 40.667H9.86783V42.8892H12.1959V40.667Z" fill="white"/>
<path d="M16.852 40.667H14.5239V42.8892H16.852V40.667Z" fill="white"/>
<path d="M21.508 40.667H19.18V42.8892H21.508L21.508 40.667Z" fill="white"/>
<path d="M23.8361 40.667H21.508L21.508 42.8892H23.8361V40.667Z" fill="white"/>
<path d="M26.1641 40.667H23.8361V42.8892H26.1641V40.667Z" fill="white"/>
<path d="M28.4922 40.667H26.1641V42.8892H28.4922V40.667Z" fill="white"/>
<path d="M35.4763 40.667H33.1483V42.8892H35.4763V40.667Z" fill="white"/>
<path d="M37.8043 40.667H35.4763V42.8892H37.8043V40.667Z" fill="white"/>
<path d="M42.4604 40.667H40.1324V42.8892H42.4604V40.667Z" fill="white"/>
<path d="M44.7885 40.667H42.4604V42.8892H44.7885V40.667Z" fill="white"/>
<path d="M47.1165 40.667H44.7885V42.8892H47.1165V40.667Z" fill="white"/>
<path d="M49.4446 40.667H47.1165V42.8892H49.4446V40.667Z" fill="white"/>
<path d="M2.88371 42.8892H0.555664V45.1114H2.88371V42.8892Z" fill="white"/>
<path d="M16.852 42.8892H14.5239V45.1114H16.852V42.8892Z" fill="white"/>
<path d="M21.508 42.8892H19.18V45.1114H21.508V42.8892Z" fill="white"/>
<path d="M26.1641 42.8892H23.8361V45.1114H26.1641V42.8892Z" fill="white"/>
<path d="M30.8202 42.8892H28.4922V45.1114H30.8202V42.8892Z" fill="white"/>
<path d="M33.1483 42.8892H30.8202V45.1114H33.1483V42.8892Z" fill="white"/>
<path d="M40.1324 42.8892H37.8043V45.1114H40.1324V42.8892Z" fill="white"/>
<path d="M44.7885 42.8892H42.4604V45.1114H44.7885V42.8892Z" fill="white"/>
<path d="M47.1165 42.8892H44.7885V45.1114H47.1165V42.8892Z" fill="white"/>
<path d="M2.88371 45.1114H0.555664V47.3337H2.88371V45.1114Z" fill="white"/>
<path d="M5.21175 45.1114H2.88371V47.3337H5.21175V45.1114Z" fill="white"/>
<path d="M7.53979 45.1114H5.21175V47.3337H7.53979V45.1114Z" fill="white"/>
<path d="M9.86783 45.1114H7.53979V47.3337H9.86783V45.1114Z" fill="white"/>
<path d="M12.1959 45.1114H9.86783V47.3337H12.1959V45.1114Z" fill="white"/>
<path d="M14.5239 45.1114H12.1959V47.3337H14.5239V45.1114Z" fill="white"/>
<path d="M16.852 45.1114H14.5239V47.3337H16.852V45.1114Z" fill="white"/>
<path d="M21.508 45.1114H19.18V47.3337H21.508V45.1114Z" fill="white"/>
<path d="M26.1641 45.1114H23.8361V47.3337H26.1641V45.1114Z" fill="white"/>
<path d="M37.8043 45.1114H35.4763V47.3337H37.8043V45.1114Z" fill="white"/>
<path d="M40.1324 45.1114H37.8043V47.3337H40.1324V45.1114Z" fill="white"/>
<path d="M44.7885 45.1114H42.4604V47.3337H44.7885V45.1114Z" fill="white"/>
<path d="M47.1165 45.1114H44.7885V47.3337H47.1165V45.1114Z" fill="white"/>
</svg>
