<svg width="42" height="42" viewBox="0 0 42 42" fill="none" xmlns="http://www.w3.org/2000/svg">
<path fill-rule="evenodd" clip-rule="evenodd" d="M12.6665 6.4165C12.6665 2.96472 15.4647 0.166504 18.9165 0.166504H23.0832C26.535 0.166504 29.3332 2.96472 29.3332 6.4165V8.85548C29.9848 8.62516 30.686 8.49984 31.4165 8.49984H35.5832C39.035 8.49984 41.8332 11.2981 41.8332 14.7498V35.5832C41.8332 39.035 39.035 41.8332 35.5832 41.8332H6.4165C2.96472 41.8332 0.166504 39.035 0.166504 35.5832V23.0832C0.166504 19.6314 2.96472 16.8332 6.4165 16.8332H10.5832C11.3137 16.8332 12.0149 16.9585 12.6665 17.1888V6.4165ZM16.8332 37.6665H25.1665V6.4165C25.1665 5.26591 24.2338 4.33317 23.0832 4.33317H18.9165C17.7659 4.33317 16.8332 5.26591 16.8332 6.4165V37.6665ZM29.3332 37.6665H35.5832C36.7338 37.6665 37.6665 36.7338 37.6665 35.5832V14.7498C37.6665 13.5992 36.7338 12.6665 35.5832 12.6665H31.4165C30.2659 12.6665 29.3332 13.5992 29.3332 14.7498V37.6665ZM12.6665 37.6665V23.0832C12.6665 21.9326 11.7338 20.9998 10.5832 20.9998H6.4165C5.26591 20.9998 4.33317 21.9326 4.33317 23.0832V35.5832C4.33317 36.7338 5.26591 37.6665 6.4165 37.6665H12.6665Z" fill="white"/>
</svg>
